<svg width="1511" height="595" viewBox="0 0 1511 595" version="1.1" xmlns="http://www.w3.org/2000/svg" xmlns:xlink="http://www.w3.org/1999/xlink">
<g id="Canvas" fill="none">
<g id="big_logo">
<g id="uymeby">
<path d="M 189.6 230.8L 189.6 418L 162.4 418L 162.4 386.8C 156 398.8 147.467 408.133 136.8 414.8C 126.4 421.2 114.267 424.4 100.4 424.4C 87.3333 424.4 75.2 421.733 64 416.4C 53.0667 411.067 44.2667 403.2 37.6 392.8C 31.2 382.4 28 370.133 28 356L 28 230.8L 55.2 230.8L 55.2 344C 55.2 381.067 71.7333 399.6 104.8 399.6C 124 399.6 138.4 392.8 148 379.2C 157.6 365.6 162.4 347.333 162.4 324.4L 162.4 230.8L 189.6 230.8ZM 348.844 230.8L 374.444 230.8L 273.244 498L 246.044 498L 275.644 421.6L 198.844 230.8L 227.244 230.8L 289.244 386L 348.844 230.8ZM 578.931 224.4C 596.265 224.4 610.665 230.533 622.131 242.8C 633.598 254.8 639.331 271.467 639.331 292.8L 639.331 418L 612.131 418L 612.131 304.8C 612.131 285.067 608.398 270.933 600.931 262.4C 593.465 253.6 583.731 249.2 571.731 249.2C 557.065 249.2 545.598 254.933 537.331 266.4C 529.331 277.6 524.665 292.933 523.331 312.4L 523.331 418L 496.131 418L 496.131 304.8C 496.131 285.067 492.398 270.933 484.931 262.4C 477.465 253.6 467.731 249.2 455.731 249.2C 439.465 249.2 427.198 256 418.931 269.6C 410.931 283.2 406.931 301.467 406.931 324.4L 406.931 418L 379.731 418L 379.731 230.8L 406.931 230.8L 406.931 260C 413.065 248.533 420.798 239.733 430.131 233.6C 439.731 227.467 450.665 224.4 462.931 224.4C 476.531 224.4 488.398 228.133 498.531 235.6C 508.665 242.8 515.731 253.2 519.731 266.8C 525.598 253.467 533.598 243.067 543.731 235.6C 553.865 228.133 565.598 224.4 578.931 224.4ZM 748.344 224.4C 765.144 224.4 780.344 228.533 793.944 236.8C 807.544 245.067 818.21 256.4 825.944 270.8C 833.677 284.933 837.544 300.8 837.544 318.4C 837.544 323.467 837.41 327.333 837.144 330L 683.144 330C 684.21 349.2 690.477 365.6 701.944 379.2C 713.41 392.8 729.01 399.6 748.744 399.6C 764.744 399.6 777.944 396.667 788.344 390.8C 799.01 384.667 807.544 376.267 813.944 365.6L 835.544 380C 826.744 393.867 815.144 404.8 800.744 412.8C 786.344 420.533 769.277 424.4 749.544 424.4C 731.41 424.4 715.277 420.133 701.144 411.6C 687.01 403.067 675.944 391.2 667.944 376C 659.944 360.8 655.944 343.6 655.944 324.4C 655.944 305.2 659.81 288 667.544 272.8C 675.544 257.6 686.477 245.733 700.344 237.2C 714.477 228.667 730.477 224.4 748.344 224.4ZM 810.344 307.6C 807.677 288.133 801.144 273.6 790.744 264C 780.344 254.133 766.21 249.2 748.344 249.2C 731.01 249.2 716.744 254.8 705.544 266C 694.61 276.933 687.677 290.8 684.744 307.6L 810.344 307.6ZM 951.3 224.4C 969.167 224.4 985.033 228.667 998.9 237.2C 1013.03 245.733 1023.97 257.6 1031.7 272.8C 1039.7 287.733 1043.7 304.8 1043.7 324C 1043.7 343.467 1039.7 360.8 1031.7 376C 1023.7 391.2 1012.63 403.067 998.5 411.6C 984.367 420.133 968.367 424.4 950.5 424.4C 937.167 424.4 924.9 421.467 913.7 415.6C 902.5 409.467 893.033 401.067 885.3 390.4L 885.3 418L 858.1 418L 858.1 127.6L 885.3 127.6L 885.3 258.8C 893.033 247.867 902.5 239.467 913.7 233.6C 925.167 227.467 937.7 224.4 951.3 224.4ZM 951.3 399.6C 963.833 399.6 975.033 396.4 984.9 390C 994.767 383.6 1002.5 374.667 1008.1 363.2C 1013.7 351.733 1016.5 338.667 1016.5 324C 1016.5 309.6 1013.7 296.8 1008.1 285.6C 1002.5 274.133 994.767 265.2 984.9 258.8C 975.033 252.4 963.833 249.2 951.3 249.2C 938.5 249.2 927.033 252.4 916.9 258.8C 907.033 265.2 899.3 274.133 893.7 285.6C 888.1 297.067 885.3 310 885.3 324.4C 885.3 338.8 888.1 351.733 893.7 363.2C 899.3 374.667 907.033 383.6 916.9 390C 927.033 396.4 938.5 399.6 951.3 399.6ZM 1190.72 230.8L 1216.32 230.8L 1115.12 498L 1087.92 498L 1117.52 421.6L 1040.72 230.8L 1069.12 230.8L 1131.12 386L 1190.72 230.8Z" transform="translate(294 97)" fill="#F9C82D"/>
</g>
<g id="icon">
<g id="Vector">
<path d="M 0.166876 121.673C 0.166876 121.673 -9.36998 -1.85648 115.743 0.0211898C 115.743 0.0221607 122.246 110.725 0.166876 121.673Z" transform="translate(155.647 47.1895)" fill="#64C37D"/>
</g>
<g id="Vector_2">
<path d="M 121.673 115.636C 121.673 115.636 -1.85648 125.173 0.0211903 0.060303C 0.0231321 0.060303 110.726 -6.44357 121.673 115.636Z" transform="translate(29 50.1242)" fill="#64C37D"/>
</g>
<g id="Vector_3">
<path d="M 42.2364 167.78C 42.2364 167.78 -51.0364 86.2291 39.6345 0C 39.6345 0 121.766 74.5136 42.2364 167.78Z" transform="translate(112.518 0)" fill="#458C62"/>
</g>
<g id="Group">
<g id="Vector_4">
<path d="M -6.87386e-06 6.51832e-06C 63.5699 6.51832e-06 115.581 52.0116 115.581 115.581L 115.581 230.469C 115.581 294.039 63.5689 346.049 -6.87386e-06 346.049L -6.87386e-06 6.51832e-06Z" transform="translate(135.581 153) scale(-1 1)" fill="#FFDA44"/>
</g>
<g id="Vector_5">
<path fill-rule="evenodd" clip-rule="evenodd" d="M 131.343 0C 58.9204 0 0 58.9204 0 131.343L 0 246.231C 0 318.652 58.9204 377.573 131.343 377.573C 138.302 377.573 145.982 377.862 154.14 378.17C 199.572 379.884 259.832 382.157 293 338.073C 324.703 295.936 311.5 237.413 307 229.073C 295.367 189.361 262.495 180.454 250.724 177.265C 247.823 176.479 246.203 176.04 246.5 175.573C 246.5 175.573 314 147.073 292.5 74.0728C 271 1.07278 210 -2.81236e-09 131.343 0ZM 31.5233 131.342C 31.5233 125.946 31.9592 120.65 32.7884 115.483L 72.9495 155.645L 33.6418 194.952L 31.5223 192.833L 31.5233 131.342ZM 117.53 155.646L 135.239 138.738L 135.239 155.646L 135.239 177.935L 117.53 155.646ZM 254 82.4573C 254 82.4573 261.5 118.573 235.5 147.573C 217.876 167.23 170.874 162.573 170.874 162.573L 170.874 32.3116C 172.462 32.3116 174.136 32.294 175.883 32.2756L 175.885 32.2756L 175.886 32.2756C 201.235 32.0087 241.839 31.5812 254 82.4573ZM 84.8942 43.0116L 135.239 93.3563L 95.2398 133.355L 44.3417 82.4573C 53.7757 65.734 67.8883 51.9903 84.8942 43.0116ZM 31.5233 246.231L 31.5233 237.413L 86.9029 292.792L 61.866 317.829C 43.166 299.678 31.5233 274.29 31.5233 246.231ZM 88.0922 336.184L 109.194 315.083L 135.239 346.049C 133.67 346.181 133.535 346.164 133.21 346.124C 132.957 346.093 132.589 346.049 131.344 346.049C 115.857 346.05 101.184 342.506 88.0922 336.184ZM 135.239 296.548L 131.484 292.792L 135.239 286.311L 135.239 296.548ZM 135.239 223.204L 95.2398 177.935L 55.932 217.243L 101.942 267.08L 135.239 237.413L 135.239 223.204ZM 170.874 194.952L 170.874 343.073C 170.874 343.073 221 346.073 239 333.573C 257 321.073 283.5 289.253 265 237.413C 246.5 185.573 170.874 194.952 170.874 194.952ZM 135.239 49.4175L 135.239 32.3116C 133.936 32.3116 132.273 32.2629 130.475 32.2103C 126.401 32.091 121.632 31.9513 118.775 32.3116L 135.239 49.4175Z" transform="translate(0 136.427)" fill="#F9C82D"/>
</g>
</g>
</g>
</g>
</g>
</svg>

